<svg xmlns="http://www.w3.org/2000/svg" xmlns:xlink="http://www.w3.org/1999/xlink" version="1.1" x="0px" y="0px" viewBox="0 0 100 125" enable-background="new 0 0 100 100" xml:space="preserve"><path fill="#000000" d="M89.896,41.372c-3.082-3.899-5.368-7.181-11.456-8.379  c1.973-5.969,0.415-9.186-1.626-13.789C74.19,13.29,75.185,7,75.185,7h0.012c0,0-5.617,3.724-12.021,4.663  c-4.919,0.721-8.973,1.003-13.068,5.664c-4.32-4.822-8.224-5.283-13.261-5.82C30.412,10.821,25,6.552,25,6.552V6.544  c0,0,0.862,6.978-1.526,12.994c-1.846,4.649-3.493,8.415-1.393,14.374c-6.179,1.325-8.524,4.379-11.478,8.432  C6.792,47.572,0.402,50,0.402,50H0.395c0,0,6.477,2.889,10.492,7.963c3.102,3.92,5.55,7.278,11.744,8.457  c-1.972,6.045-0.361,9.678,1.681,14.28c2.622,5.911,1.658,12.714,1.658,12.714l0,0c0,0,5.62-4.209,12.023-5.146  c4.943-0.727,9.012-1.195,13.125-5.953c4.219,4.72,8.073,5.114,13.074,5.647c6.432,0.686,11.716,4.899,11.716,4.899V92.86  c0,0-0.73-6.959,1.658-12.975c1.841-4.639,3.498-8.393,1.455-14.324c6.206-1.306,8.214-4.493,11.184-8.568  c3.813-5.23,9.796-7.766,9.796-7.766v-0.001C100,49.226,93.913,46.447,89.896,41.372z M50.572,82.282  c-17.939,0-32.532-14.594-32.532-32.534c0-17.938,14.593-32.531,32.532-32.531c17.938,0,32.532,14.593,32.532,32.531  C83.104,67.688,68.51,82.282,50.572,82.282z"/><path fill="#000000" d="M50.572,19.383c-16.744,0-30.365,13.622-30.365,30.366  c0,16.745,13.621,30.367,30.365,30.367c16.743,0,30.365-13.622,30.365-30.367C80.938,33.004,67.315,19.383,50.572,19.383z   M50.585,49.727l-0.001-0.004l0.003,0.003C50.586,49.726,50.587,49.727,50.585,49.727z"/><path fill="#000000" d="M63.739,29.829c4.185,3.631,6.843,8.975,6.843,14.95c0,10.937-8.865,19.802-19.801,19.802  c-10.935,0-19.8-8.865-19.8-19.802c0-6.232,2.886-11.784,7.388-15.414C31.632,33.509,27.14,40.947,27.14,49.436  c0,13.008,10.544,23.553,23.552,23.553c13.007,0,23.551-10.545,23.551-23.553C74.242,41.255,70.07,34.051,63.739,29.829z"/><text x="0" y="115" fill="#000000" font-size="5px" font-weight="bold" font-family="'Helvetica Neue', Helvetica, Arial-Unicode, Arial, Sans-serif">Created by Cass Reese</text><text x="0" y="120" fill="#000000" font-size="5px" font-weight="bold" font-family="'Helvetica Neue', Helvetica, Arial-Unicode, Arial, Sans-serif">from the Noun Project</text></svg>